<?xml version="1.0" encoding="UTF-8" standalone="no"?>
<!-- Created with Inkscape (http://www.inkscape.org/) -->

<svg
   xmlns:dc="http://purl.org/dc/elements/1.1/"
   xmlns:cc="http://creativecommons.org/ns#"
   xmlns:rdf="http://www.w3.org/1999/02/22-rdf-syntax-ns#"
   xmlns:svg="http://www.w3.org/2000/svg"
   xmlns="http://www.w3.org/2000/svg"
   xmlns:sodipodi="http://sodipodi.sourceforge.net/DTD/sodipodi-0.dtd"
   xmlns:inkscape="http://www.inkscape.org/namespaces/inkscape"
   width="210mm"
   height="297mm"
   viewBox="0 0 210 297"
   version="1.1"
   id="svg8"
   inkscape:version="0.92.3 (2405546, 2018-03-11)"
   sodipodi:docname="garden.svg">
  <defs
     id="defs2">
    <filter
       inkscape:collect="always"
       style="color-interpolation-filters:sRGB"
       id="filter6140"
       x="-0.011887231"
       width="1.0237745"
       y="-0.012114929"
       height="1.0242299">
      <feGaussianBlur
         inkscape:collect="always"
         stdDeviation="0.37490057"
         id="feGaussianBlur6142" />
    </filter>
  </defs>
  <sodipodi:namedview
     id="base"
     pagecolor="#ffffff"
     bordercolor="#666666"
     borderopacity="1.0"
     inkscape:pageopacity="0.0"
     inkscape:pageshadow="2"
     inkscape:zoom="0.76"
     inkscape:cx="179.60526"
     inkscape:cy="183.9029"
     inkscape:document-units="mm"
     inkscape:current-layer="layer2"
     showgrid="false"
     inkscape:window-width="1600"
     inkscape:window-height="837"
     inkscape:window-x="-8"
     inkscape:window-y="-8"
     inkscape:window-maximized="1" />
  <metadata
     id="metadata5">
    <rdf:RDF>
      <cc:Work
         rdf:about="">
        <dc:format>image/svg+xml</dc:format>
        <dc:type
           rdf:resource="http://purl.org/dc/dcmitype/StillImage" />
        <dc:title />
      </cc:Work>
    </rdf:RDF>
  </metadata>
  <g
     inkscape:label="Livello 1"
     inkscape:groupmode="layer"
     id="layer1">
    <path
       style="fill:#0aff00;fill-opacity:0.69230772;stroke:#000000;stroke-width:0.26458332px;stroke-linecap:butt;stroke-linejoin:miter;stroke-opacity:1"
       d="M -1.0444079,0.3881579 96.453692,-1.0782136 93.99671,99.606906 l 0,59.183114 -3.481361,128.11404 3.847587,6.31076 -95.4073439,3.43704 V 0.3881579"
       id="path6151"
       inkscape:connector-curvature="0"
       sodipodi:nodetypes="cccccccc" />
    <path
       style="stroke-width:0.28398055"
       d="m 108.95424,296.10716 c 1.5753,-49.88619 0.73536,-99.81201 1.09283,-149.71697 -4.78444,-6.57672 9.63872,-12.40369 7.40392,-3.16327 -2.01717,46.83875 -2.29676,93.77606 -1.37212,140.64784 1.6754,7.44904 -0.12225,12.02869 -7.12463,12.2324 z"
       id="path18"
       inkscape:connector-curvature="0" />
    <path
       style="stroke-width:0.28398055"
       d="m 113.76752,137.71899 c 25.89118,-3.48613 52.06528,-4.76609 78.09419,-2.84899 9.52846,0.82846 19.02339,2.22857 28.40606,4.3218 4.82688,-3.16096 9.98541,6.88136 4.66751,9.13655 -4.0815,0.37561 -8.01495,-1.57181 -12.06737,-1.97561 -12.35785,-2.82183 -24.9061,-4.51437 -37.51002,-4.67674 -18.32242,-0.49089 -36.71298,0.63118 -54.84104,3.74341 -4.55838,2.83309 -6.85181,-1.23451 -6.48698,-6.03822 -0.0875,-0.55407 -0.1749,-1.10814 -0.26235,-1.6622 z"
       id="path26"
       inkscape:connector-curvature="0" />
    <path
       style="stroke-width:0.26458332"
       d="M 86.612082,293.21482 C 89.247077,231.0901 91.658326,168.92031 91.769084,106.73735 90.346765,75.558401 82.869156,44.493601 86.793882,13.209589 85.477383,6.8664538 88.61806,-11.640801 96.453693,-1.0782136 94.741777,9.4319333 92.700343,19.846228 93.248885,30.675087 c 0.0097,35.6581 8.004075,70.987673 5.053733,106.718853 -3.298136,51.85727 -5.380105,103.85423 -3.939682,155.82088 -2.583618,0 -5.167236,0 -7.750854,0 z"
       id="path30"
       inkscape:connector-curvature="0" />
    <path
       style="fill:#b3ff00;stroke:#000000;stroke-width:0.26458332px;stroke-linecap:butt;stroke-linejoin:miter;stroke-opacity:1;fill-opacity:0.69230771"
       d="M 15.046492,1.2996411 -1.0444079,0.3881579 V 296.65186 l 11.8007639,0.66956 4.21349,-28.52045 1.74068,-37.59867 -1.392544,-38.99123 -0.377571,-42.1873 -0.666837,-30.92125 4.525768,-34.465459 -4.065257,-34.449892 z"
       id="path6149"
       inkscape:connector-curvature="0" />
    <path
       style="fill:#008000;stroke-width:0.26458332"
       d="m 15.046492,1.2996411 c 0.139485,16.2932949 0.210974,32.6256449 -0.312407,48.8875279 2.144933,15.217347 6.635967,30.708653 2.655914,46.046799 -2.998311,17.742042 -5.754468,35.880552 -2.449588,53.789802 1.295199,21.74183 -0.728152,43.72029 3.462309,65.24 1.316763,14.80365 -4.549985,29.04815 -3.476321,43.87727 -0.295467,13.04136 1.280991,26.4384 -0.868422,39.24939 -3.479949,2.03592 -10.2302357,-1.90562 -3.301621,-1.06902 8.422462,-10.90825 0.212819,-24.66695 3.294116,-36.79194 -1.492083,-14.75859 3.499346,-29.20417 3.560194,-43.82743 -1.653101,-13.10519 -4.822141,-26.26557 -2.807358,-39.52348 0.183205,-24.89733 -5.2518445,-50.12145 0.847444,-74.7231 C 17.843,88.094818 19.471109,73.144699 14.935558,59.039261 11.296206,44.99007 15.806189,30.741823 13.912125,16.568163 13.707734,11.462671 13.791732,6.2822938 15.046492,1.2996411 Z"
       id="path32"
       inkscape:connector-curvature="0" />
    <path
       style="fill:#a0892c;stroke-width:0.26458332"
       d="m 84.499566,27.646561 c -7.156244,-0.09028 -14.314428,0.119753 -21.469507,-0.08692 -2.751513,-1.010315 -4.961185,-3.536885 -8.061351,-3.50192 -2.441361,-1.441267 -6.220226,0.701951 -5.833541,3.627307 -0.241453,9.247387 0.548757,18.477421 1.143554,27.69281 -0.0078,2.464863 -0.06583,4.930095 -0.0066,7.394747 2.132205,2.200106 5.396319,1.244941 8.097137,1.364793 7.777944,0.514324 15.50475,2.041866 23.326129,1.703943 2.402823,0.409534 6.054096,1.454482 7.302936,-1.451252 1.366924,-3.225629 0.08134,-6.743979 0.409247,-10.102073 0.04118,-8.308205 0.116425,-16.618117 -0.08452,-24.924964 -1.264407,-0.365792 -4.572924,-2.540942 -1.347753,-2.20499 2.544735,1.107427 3.144458,4.288272 2.545594,6.730949 -0.227477,9.388412 0.07725,18.785491 -0.01038,28.171091 0.189911,2.374451 -1.11034,5.540949 -3.888528,5.46335 -3.092976,-0.03983 -6.12247,-0.970327 -9.231472,-0.694851 -4.805429,-0.05148 -9.619986,-0.405769 -14.338553,-1.325065 -4.014036,-0.285251 -8.058352,-0.09069 -12.053924,-0.636365 -2.614026,-1.805061 -1.857822,-5.334933 -1.765561,-8.027309 0.254158,-9.022345 -1.884012,-17.984001 -0.990598,-27.006894 -0.519227,-2.448942 -0.08033,-5.82697 2.607966,-6.793974 4.143145,-1.080878 8.24236,0.97126 11.716876,3.039688 5.078573,1.334199 10.339482,-0.07155 15.488122,0.562418 2.00562,0.275117 5.129836,-0.765191 6.444296,0.614251 l 4.5e-4,0.39123 z"
       id="path38"
       inkscape:connector-curvature="0" />
    <path
       style="fill:#a0892c;stroke-width:0.26458332"
       d="m 54.360387,109.8812 c -1.742613,8.41139 -2.30413,17.01143 -2.574869,25.58037 1.515793,2.35136 4.638278,1.73118 7.00677,1.69786 11.89492,-0.0703 23.720261,1.61141 35.613697,1.59512 2.187462,-0.93559 2.174493,-3.65476 2.006038,-5.66157 -0.2555,-5.05348 -0.01168,-10.11547 -0.07215,-15.17239 1.016477,-2.48022 -1.817871,-5.28513 -4.30441,-4.5157 -7.591488,-0.68596 -15.638456,0.008 -22.666771,-3.48934 -2.691071,-1.95246 -6.218784,-3.0817 -9.491164,-2.04863 -1.94141,0.36728 -3.747768,1.39129 -5.759818,1.3764 1.285879,-2.52035 4.558314,-1.41232 6.70943,-2.46241 3.382137,-0.89243 6.820711,0.55676 9.578365,2.44864 5.248837,2.82298 11.391856,2.29733 17.136406,2.81206 2.210365,0.23244 4.433503,0.33146 6.649186,0.40453 2.327592,0.37236 3.728716,2.98527 3.197239,5.1915 -0.176651,4.58023 -0.02544,9.15997 0.01605,13.73916 -0.02065,2.22953 -0.0935,4.45955 -0.268492,6.68268 -1.519777,2.25554 -4.563266,2.01358 -6.934882,1.77341 -12.121882,-0.65191 -24.234902,-1.99322 -36.39025,-1.58075 -2.59001,-0.60483 -3.661395,-3.73815 -3.036607,-6.10461 0.565608,-7.13933 1.111074,-14.28961 2.201101,-21.37242 0.19616,-0.54694 0.768198,-1.04365 1.385125,-0.89391 z"
       id="path40"
       inkscape:connector-curvature="0" />
    <path
       style="fill:#008000;stroke-width:0.28398055"
       d="m 188.22941,236.00821 c -6.37719,-1.65934 -12.48467,3.08191 -16.26998,8.62562 -5.14896,7.44947 -6.2411,17.38545 -5.94893,26.6147 -0.29727,5.71046 0.83197,12.45918 5.45242,15.59567 9.01158,6.98805 21.67299,5.85857 30.18722,-1.64165 4.04048,-3.17425 6.56794,-8.60923 6.65997,-14.2387 0.73359,-10.82042 -2.71397,-21.50237 -7.7299,-30.48821 -2.53157,-4.31631 -6.27592,-7.64917 -10.58936,-9.22053 -2.37338,-1.94026 -4.75559,3.57124 -6.32734,1.57412 0.81984,-2.54788 3.67542,-3.27033 5.79905,-2.7364 6.19184,1.42245 11.08009,6.96962 13.96291,13.22593 4.0473,9.00971 7.06981,19.25113 5.7355,29.51331 -0.54242,4.34076 -1.95881,8.72413 -4.95568,11.60713 -3.63577,3.68164 -8.21963,5.89231 -12.78435,7.55221 -7.28646,2.00733 -15.3799,0.22222 -21.42902,-4.88488 -3.24302,-2.95372 -4.93507,-7.67854 -4.93653,-12.38292 -0.29695,-5.98283 0.23468,-11.99004 0.8602,-17.91737 1.85467,-9.70883 7.84638,-18.93861 16.35724,-21.77295 1.91313,-0.48008 4.97698,-2.00384 5.95658,0.97492 z"
       id="path44"
       inkscape:connector-curvature="0" />
    <path
       style="fill:#008000;stroke-width:0.28398055"
       d="m 128.40419,251.01191 c -5.26421,5.72708 -8.91639,13.27125 -10.79952,21.29402 -0.25376,4.07938 2.77234,7.22725 5.76172,8.72982 7.62405,4.69858 16.54069,4.81078 24.96728,4.4413 3.24853,-0.63518 4.91542,-4.51444 5.52812,-7.88572 2.13198,-8.77135 3.35426,-17.93868 2.7234,-27.0572 -1.07395,-5.38053 -5.93232,-8.3759 -10.37423,-8.97836 -4.11111,-1.05734 -8.78786,-0.61387 -12.1334,2.57625 -2.2155,1.2804 -3.37026,3.97534 -5.2273,5.74663 -1.10698,-2.53189 2.17675,-3.9961 3.36658,-5.61903 2.99681,-2.75193 6.72179,-5.01104 10.67594,-4.36409 4.90475,0.32662 10.39542,1.87106 13.3932,6.73856 2.22384,4.15483 1.40425,9.23952 1.29415,13.84731 -0.46913,7.3882 -1.59536,14.82175 -4.0607,21.68828 -1.32016,2.97997 -4.18523,5.14254 -7.14808,4.62578 -8.29495,0.046 -17.15046,-0.19159 -24.43484,-5.3536 -2.64108,-1.78679 -5.48642,-4.50588 -5.33758,-8.39767 0.0936,-4.41807 2.28456,-8.2638 3.94687,-12.09721 1.80068,-3.66171 3.96852,-7.07948 6.41496,-10.20325 0.39549,-0.42162 1.29708,-0.47302 1.44343,0.26818 z"
       id="path48"
       inkscape:connector-curvature="0" />
    <path
       style="fill:#552200;stroke-width:0.24339278"
       d="m 138.78153,155.68561 c 15.6137,1.08717 31.11908,5.18838 46.82488,3.64345 8.42405,-0.13019 16.84872,-0.45246 25.27406,-0.25995 2.69099,5.11381 0.13635,11.04345 0.49333,16.52907 -1.10604,18.08761 -1.43225,36.22755 -1.36291,54.35624 -4.07613,3.31725 -8.88202,-0.14964 -13.27172,-0.22735 -14.18504,-1.06539 -28.77009,-5.45531 -42.75975,-0.43224 -4.88754,1.35763 -10.22941,2.70161 -15.07429,0.41772 -3.59631,-3.71827 -2.02749,-9.61385 -2.13067,-14.44818 -0.65485,-18.39227 -2.31478,-36.77763 -1.58541,-55.20249 2.68498,-2.08838 0.47857,4.70037 0.58954,6.33475 -0.36488,10.55147 1.04493,21.04742 1.04397,31.59345 0.39779,9.26594 0.73445,18.53776 0.80802,27.81563 1.6616,4.5786 6.69878,4.64539 10.2977,3.77985 10.18698,-2.39251 20.67114,-5.44632 31.09444,-3.1238 7.36272,0.87933 14.66387,2.38648 22.05189,2.99335 3.59337,3.65619 10.19645,-1.41685 8.48166,-6.64333 -0.96509,-15.32026 0.56899,-30.64254 0.96207,-45.95259 0.25645,-4.79541 0.55178,-9.58806 0.88701,-14.37702 -2.86627,-4.09992 -7.74334,-2.13135 -11.61074,-2.10922 -17.71497,-0.42922 -35.67466,1.16765 -53.12589,-3.24097 -2.6311,-0.32793 -5.64287,0.66577 -7.88719,-1.44637 z"
       id="path52"
       inkscape:connector-curvature="0" />
    <path
       style="fill:#008000;stroke-width:0.26458332"
       id="path27"
       d="m 79.260033,249.32902 c -2.046118,0.56897 -3.613888,2.0413 -5.05166,3.52741 -1.667743,1.97045 -3.238595,4.09914 -4.254926,6.48982 -0.163841,0.38539 -0.292291,0.7849 -0.438433,1.17735 -0.426958,1.5422 -0.950227,3.1933 -0.628094,4.80184 0.48052,1.17388 1.727755,1.56186 2.853433,1.88015 1.626298,0.41408 2.833013,0.12949 4.306459,-0.59203 1.675749,-0.93914 3.016303,-2.30403 4.160882,-3.82611 1.093557,-1.5851 1.659686,-3.43524 2.135484,-5.28027 0.389816,-1.4012 0.669073,-2.82789 0.981247,-4.24688 0.236281,-0.94355 0.368525,-1.90653 0.436621,-2.87543 0.0067,-0.4493 0.183298,-1.05772 -0.297154,-1.3069 -0.513612,-0.17405 -1.069081,-0.15615 -1.60479,-0.1616 -0.665586,0.018 -1.378755,-0.12234 -1.951575,0.28021 0,0 -0.346448,-0.54478 -0.346448,-0.54478 v 0 c 0.812797,-0.48592 1.395923,-0.3781 2.303817,-0.38079 0.659596,0.005 1.345964,-0.0145 1.958006,0.26736 0.700154,0.51293 0.640427,1.09263 0.581012,1.89246 -0.07263,0.99987 -0.210216,1.9939 -0.455266,2.96745 -0.316693,1.42576 -0.596627,2.86023 -0.99156,4.26796 -0.500867,1.9243 -1.09845,3.85067 -2.245852,5.50092 -1.208641,1.59858 -2.618227,3.03619 -4.386813,4.01711 -1.624391,0.78533 -2.972792,1.09225 -4.758724,0.63442 -1.373391,-0.39394 -2.790852,-0.91372 -3.307943,-2.37549 -0.0386,-0.21854 -0.0985,-0.43439 -0.115784,-0.65563 -0.118491,-1.51677 0.406908,-3.0447 0.787522,-4.48334 0.154,-0.40869 0.289734,-0.82474 0.462004,-1.22607 1.050841,-2.44812 2.661039,-4.63094 4.371399,-6.65232 1.538634,-1.59327 3.17057,-3.1104 5.357124,-3.72687 0,0 0.140012,0.63005 0.140012,0.63005 z"
       inkscape:connector-curvature="0" />
    <path
       style="fill:#008000;stroke-width:0.26458332"
       id="path29"
       d="m 80.546795,231.1955 c -2.095826,1.63694 -3.899628,3.60968 -5.694799,5.56144 -1.501479,1.68576 -2.986686,3.41894 -3.889232,5.50672 -0.448038,1.12602 -0.467649,2.03684 -0.232601,3.19998 0.244822,0.84715 0.801008,1.5316 1.429417,2.12879 0.969507,0.76207 2.162797,1.05687 3.353961,1.25904 0.742003,0.0662 1.573718,0.19056 2.298724,-0.0648 0.403974,-0.14228 0.585073,-0.33194 0.91716,-0.594 1.242801,-1.25118 1.861994,-2.88254 2.516677,-4.48143 0.800113,-2.05616 1.583023,-4.12263 2.256657,-6.22409 0.444887,-1.38555 0.899862,-2.77193 1.21493,-4.19396 0.120912,-0.6986 0.355238,-1.31331 -0.287462,-1.79013 -0.614077,-0.35851 -1.323747,-0.42692 -2.01858,-0.47183 -0.456597,-0.016 -0.228973,-0.0103 -0.682871,-0.0173 0,0 0.01035,-0.64566 0.01035,-0.64566 v 0 c 0.473083,0.008 0.234775,0.002 0.714915,0.019 0.833239,0.0558 1.674688,0.15666 2.392135,0.62261 0.117448,0.10634 0.253172,0.19545 0.352348,0.31901 0.483939,0.6029 0.268327,1.42133 0.145341,2.10442 -0.325033,1.43953 -0.78545,2.84422 -1.24033,4.2469 -0.681445,2.1159 -1.470467,4.19716 -2.275115,6.2689 -0.694192,1.70373 -1.362421,3.43727 -2.708399,4.74986 -0.185743,0.14067 -0.357963,0.30125 -0.557228,0.422 -0.948503,0.57479 -2.102663,0.48686 -3.157136,0.36088 -1.316416,-0.22706 -2.628677,-0.56812 -3.689154,-1.42555 -0.722251,-0.69299 -1.352243,-1.48152 -1.615755,-2.46666 -0.257288,-1.29654 -0.224313,-2.33319 0.278831,-3.58073 0.945978,-2.1451 2.46039,-3.93801 4.018397,-5.66969 1.822148,-1.98 3.650985,-3.97988 5.761971,-5.65954 0,0 0.386855,0.51581 0.386855,0.51581 z"
       inkscape:connector-curvature="0" />
    <path
       style="fill:#008000;stroke-width:0.26458332"
       d="m 55.970318,284.22852 c -1.916062,-0.25391 -8.649171,2.84609 -3.654296,1.61523 5.507493,-1.89608 11.555871,-0.86139 17.197265,-0.0937 4.634182,0.75923 7.181215,6.95083 2.710938,9.69727 -6.955732,3.73569 -15.750485,4.74184 -23.363281,2.47851 -4.163617,-1.6537 -3.28237,-8.13014 -0.564454,-10.91992 -5.044102,2.66514 -3.648076,13.28749 3.203125,12.23437 8.175281,0.90079 18.731232,0.91082 23.845703,-6.62109 1.066231,-7.14581 -7.742383,-8.26482 -12.936886,-8.23762 -2.142551,-0.17576 -4.292163,-0.14383 -6.438114,-0.153 z"
       id="path31"
       inkscape:connector-curvature="0" />
    <path
       style="fill:#008000;stroke-width:0.28398055"
       id="path33"
       d="m 120.66486,234.06807 c -0.56103,1.42213 -0.79587,2.97473 -0.97558,4.51215 -0.10503,0.93295 -0.2406,1.86823 0.2697,2.66458 0.42541,0.6175 1.03278,0.77257 1.67552,0.88466 0.79356,0.1249 1.55565,0.13187 2.29245,-0.25144 1.29198,-0.86149 1.96801,-2.41996 2.62958,-3.89179 0.73172,-1.61344 1.15342,-3.35718 1.38513,-5.14839 0.081,-1.07802 0.18938,-2.17588 0.0872,-3.25641 -0.26162,-0.94599 -0.99441,-1.33103 -1.7449,-1.65845 -0.94936,-0.346 -1.9287,-0.40055 -2.91248,-0.3072 -1.35559,0.36684 -2.07867,1.79668 -2.82065,3.02366 0,0 -0.51761,-0.41351 -0.51761,-0.41351 v 0 c 0.85378,-1.42455 1.70237,-2.98888 3.28638,-3.34778 1.07979,-0.0993 2.15461,-0.0333 3.19404,0.35412 0.98506,0.43901 1.87847,1.00954 2.15668,2.27342 0.0965,1.14438 0.001,2.3014 -0.0965,3.44209 -0.24798,1.86928 -0.69202,3.68901 -1.45482,5.37413 -0.73088,1.6247 -1.49323,3.31497 -2.93629,4.23569 -0.8867,0.42912 -1.69995,0.46091 -2.64645,0.30616 -0.82028,-0.14779 -1.57866,-0.39928 -2.10747,-1.19396 -0.60102,-1.03547 -0.52104,-1.99298 -0.37246,-3.18871 0.19263,-1.61729 0.4466,-3.24679 1.031,-4.74566 0,0 0.57749,0.33264 0.57749,0.33264 z"
       inkscape:connector-curvature="0" />
    <path
       style="fill:#008000;stroke-width:0.28398055"
       id="path35"
       d="m 123.48286,203.85255 c -1.49815,0.32086 -2.7344,1.32798 -3.86004,2.45566 -1.11705,1.1169 -1.93775,2.53497 -2.69097,3.98518 -0.4826,1.02193 -0.58798,2.16903 -0.6457,3.30925 -0.12378,1.25595 0.37038,2.26063 0.96871,3.24974 0.82123,1.23141 1.96349,2.02856 3.17462,2.65488 1.58833,0.65613 3.29071,0.81854 4.9667,0.81006 1.64123,-0.12238 2.9084,-1.15341 4.05884,-2.41631 0.97702,-1.23728 1.78453,-2.65546 2.45044,-4.13932 0.522,-1.19273 0.86566,-2.47598 1.12846,-3.7733 0.17347,-0.98308 0.2555,-1.97291 0.15253,-2.96915 -0.12785,-0.66306 -0.66017,-1.02829 -1.10946,-1.4051 -0.50826,-0.33358 -1.01984,-0.67659 -1.582,-0.87463 -0.57075,-0.16128 -1.16184,-0.16884 -1.7461,-0.18067 -0.64953,-0.007 -1.2991,-0.001 -1.94865,6.1e-4 -0.65411,0.002 -1.30822,0.002 -1.96233,0.003 -0.10893,3e-5 -0.21786,7e-5 -0.32679,10e-5 0,0 -1.8e-4,-0.74436 -1.8e-4,-0.74436 v 0 c 0.10889,-4e-5 0.21778,-7e-5 0.32667,-1.1e-4 0.65356,-3e-4 1.30713,-9.1e-4 1.96069,-0.003 0.65397,-0.002 1.30798,-0.007 1.96195,-6.1e-4 0.64558,0.013 1.29838,0.0253 1.92725,0.2135 0.62746,0.22874 1.2056,0.59889 1.76952,0.98474 0.60234,0.50498 1.23511,1.01728 1.37001,1.92045 0.10762,1.08233 0.0235,2.1573 -0.16826,3.22422 -0.27783,1.35603 -0.63836,2.69694 -1.18667,3.94326 -0.70287,1.5534 -1.54712,3.04103 -2.57956,4.3314 -1.27396,1.38797 -2.6841,2.49733 -4.49433,2.61655 -1.76643,0.005 -3.5594,-0.16965 -5.23037,-0.87307 -1.31506,-0.68633 -2.55209,-1.55545 -3.43862,-2.90141 -0.67966,-1.12503 -1.21498,-2.29307 -1.08423,-3.71482 0.0647,-1.26007 0.1962,-2.52218 0.73805,-3.64588 0.79269,-1.51264 1.65565,-2.99086 2.82404,-4.15765 1.22737,-1.22201 2.57566,-2.29787 4.20449,-2.64232 0,0 0.0713,0.73915 0.0713,0.73915 z"
       inkscape:connector-curvature="0" />
    <path
       style="fill:#c83737;stroke:#000000;stroke-width:0.265;stroke-linecap:butt;stroke-linejoin:miter;stroke-opacity:1;fill-opacity:0.84688997;opacity:1;stroke-miterlimit:4;stroke-dasharray:none;filter:url(#filter6140)"
       d="m 138.90513,229.71255 -3.71608,-69.65067 3.59248,-4.37627 72.09894,3.3835 -0.86958,70.88531 -38.03173,-3.62602 z"
       id="path4578"
       inkscape:connector-curvature="0" />
    <path
       style="fill:#d2ffd0;stroke:#000000;stroke-width:0.26458332px;stroke-linecap:butt;stroke-linejoin:miter;stroke-opacity:1;fill-opacity:0.69230771"
       d="m 51.785517,135.46157 2.574864,-25.58037 6.466758,-3.10029 33.363958,5.66523 2.944796,25.61334 z"
       id="path6153"
       inkscape:connector-curvature="0" />
    <path
       style="fill:#d2ffd0;stroke:#000000;stroke-width:0.26458332px;stroke-linecap:butt;stroke-linejoin:miter;stroke-opacity:1;fill-opacity:0.69230771"
       d="m 50.998032,64.867149 -0.14819,-41.828175 4.118866,1.018747 17.095436,3.136905 17.258905,2.168406 1.187461,32.697049 -8.815123,3.78124 z"
       id="path6155"
       inkscape:connector-curvature="0" />
  </g>
  <g
     inkscape:groupmode="layer"
     id="layer2"
     inkscape:label="Overlays"
     style="display:inline;opacity:0.644">
    <path
       style="fill:#00ff00;fill-opacity:0.43540667;stroke:#000000;stroke-width:0.26458332px;stroke-linecap:butt;stroke-linejoin:miter;stroke-opacity:1"
       d="M 48.296488,287.00589 48.739035,0.3881579 96.453692,-1.0782136 89.819077,286.90406 Z"
       id="zone1"
       inkscape:connector-curvature="0"
       inkscape:label="zone1" />
    <path
       style="fill:#00ff00;fill-opacity:0.43540667;stroke:#000000;stroke-width:0.26458332px;stroke-linecap:butt;stroke-linejoin:miter;stroke-opacity:1"
       d="M 14.603945,287.91738 15.046492,1.2996411 62.76115,-0.1667299 56.126535,287.81554 Z"
       id="zone2"
       inkscape:connector-curvature="0"
       inkscape:label="zone2" />
    <path
       style="fill:#00ff00;fill-opacity:0.43540667;stroke:#000000;stroke-width:0.26293471px;stroke-linecap:butt;stroke-linejoin:miter;stroke-opacity:1"
       d="M 81.739125,227.50687 79.374999,283.3403 13.925438,284.02792 15.046492,1.2839926 -3.4813597,0.04002193 -2.0888158,295.71748 86.612081,289.57266 91.211621,224.2048 Z"
       id="zone3"
       inkscape:connector-curvature="0"
       inkscape:label="zone3" />
    <path
       style="fill:#00ff00;fill-opacity:0.43540667;stroke:#000000;stroke-width:0.26458332px;stroke-linecap:butt;stroke-linejoin:miter;stroke-opacity:1"
       d="m 190.43037,143.82017 -72.97938,-0.59325 -8.49675,152.88024 100.97174,-0.15158 -1.0444,-51.87225 -76.66474,0.17629 -4.10281,-92.78045 63.01261,0.69627 z"
       id="zone4"
       inkscape:connector-curvature="0"
       inkscape:label="zone4" />
  </g>
</svg>
