<?xml version="1.0" encoding="UTF-8" standalone="no"?>
<!-- Created with Inkscape (http://www.inkscape.org/) -->

<svg
   xmlns:dc="http://purl.org/dc/elements/1.1/"
   xmlns:cc="http://creativecommons.org/ns#"
   xmlns:rdf="http://www.w3.org/1999/02/22-rdf-syntax-ns#"
   xmlns:svg="http://www.w3.org/2000/svg"
   xmlns="http://www.w3.org/2000/svg"
   xmlns:xlink="http://www.w3.org/1999/xlink"
   xmlns:sodipodi="http://sodipodi.sourceforge.net/DTD/sodipodi-0.dtd"
   xmlns:inkscape="http://www.inkscape.org/namespaces/inkscape"
   width="116.68094mm"
   height="77.958641mm"
   viewBox="85.1 114 35.010115 23.391489"
   version="1.1"
   id="svg3790"
   inkscape:version="0.92.1 r15371"
   sodipodi:docname="solar.svg">
  <defs
     id="defs3784">
    <linearGradient
       id="linearGradient4837"
       inkscape:collect="always">
      <stop
         id="stop4833"
         offset="0"
         style="stop-color:#ffffff;stop-opacity:1;" />
      <stop
         style="stop-color:#ffffff;stop-opacity:0.49803922;"
         offset="0.60000002"
         id="stop4839" />
      <stop
         id="stop4835"
         offset="1"
         style="stop-color:#ffffff;stop-opacity:0;" />
    </linearGradient>
    <linearGradient
       inkscape:collect="always"
       id="linearGradient4768">
      <stop
         style="stop-color:#ffffff;stop-opacity:1;"
         offset="0"
         id="stop4764" />
      <stop
         style="stop-color:#ffffff;stop-opacity:0;"
         offset="1"
         id="stop4766" />
    </linearGradient>
    <linearGradient
       inkscape:collect="always"
       id="linearGradient4760">
      <stop
         style="stop-color:#ffffff;stop-opacity:1;"
         offset="0"
         id="stop4756" />
      <stop
         style="stop-color:#ffffff;stop-opacity:0;"
         offset="1"
         id="stop4758" />
    </linearGradient>
    <linearGradient
       inkscape:collect="always"
       id="linearGradient4745">
      <stop
         style="stop-color:#ffffff;stop-opacity:1;"
         offset="0"
         id="stop4741" />
      <stop
         style="stop-color:#ffffff;stop-opacity:0.1173913"
         offset="1"
         id="stop4743" />
    </linearGradient>
    <linearGradient
       inkscape:collect="always"
       id="linearGradient4691">
      <stop
         style="stop-color:#ffffff;stop-opacity:1;"
         offset="0"
         id="stop4687" />
      <stop
         style="stop-color:#ffffff;stop-opacity:0;"
         offset="1"
         id="stop4689" />
    </linearGradient>
    <linearGradient
       inkscape:collect="always"
       id="linearGradient4659">
      <stop
         style="stop-color:#cedcf2;stop-opacity:0.8347826"
         offset="0"
         id="stop4655" />
      <stop
         style="stop-color:#a7c7fb;stop-opacity:0.35686275"
         offset="1"
         id="stop4657" />
    </linearGradient>
    <linearGradient
       inkscape:collect="always"
       id="linearGradient4531">
      <stop
         style="stop-color:#96e570;stop-opacity:1"
         offset="0"
         id="stop4527" />
      <stop
         style="stop-color:#00ea0f;stop-opacity:1"
         offset="1"
         id="stop4529" />
    </linearGradient>
    <linearGradient
       inkscape:collect="always"
       id="linearGradient4598">
      <stop
         style="stop-color:#53b4f5;stop-opacity:1;"
         offset="0"
         id="stop4594" />
      <stop
         style="stop-color:#53b4f5;stop-opacity:0;"
         offset="1"
         id="stop4596" />
    </linearGradient>
    <linearGradient
       inkscape:collect="always"
       xlink:href="#linearGradient4598"
       id="linearGradient4600"
       x1="67.981171"
       y1="-5.2880006"
       x2="67.981155"
       y2="76.461662"
       gradientUnits="userSpaceOnUse"
       gradientTransform="translate(0.20036683)" />
    <linearGradient
       inkscape:collect="always"
       xlink:href="#linearGradient4531"
       id="linearGradient4537"
       gradientUnits="userSpaceOnUse"
       x1="66.901299"
       y1="28.948904"
       x2="65.910339"
       y2="89.459686"
       gradientTransform="translate(0.40073365,3.8069697)" />
    <linearGradient
       inkscape:collect="always"
       xlink:href="#linearGradient4659"
       id="linearGradient4661"
       x1="57.673968"
       y1="38.136142"
       x2="128.48807"
       y2="38.136142"
       gradientUnits="userSpaceOnUse"
       gradientTransform="translate(3.019827,2.28108)" />
    <radialGradient
       inkscape:collect="always"
       xlink:href="#linearGradient4691"
       id="radialGradient4693"
       cx="74.978467"
       cy="4.7134234"
       fx="74.978467"
       fy="4.7134234"
       r="19.250757"
       gradientTransform="matrix(1,0,0,1.0211162,-22.040351,-5.9101676)"
       gradientUnits="userSpaceOnUse" />
    <radialGradient
       inkscape:collect="always"
       xlink:href="#linearGradient4745"
       id="radialGradient4749"
       cx="60.667782"
       cy="9.4389601"
       fx="60.667782"
       fy="9.4389601"
       r="10.018341"
       gradientUnits="userSpaceOnUse"
       gradientTransform="matrix(2.2497834,0.03128375,-0.03071063,2.2085664,-84.648405,-22.42222)" />
    <radialGradient
       inkscape:collect="always"
       xlink:href="#linearGradient4760"
       id="radialGradient4762"
       cx="50.984787"
       cy="-0.17582053"
       fx="50.984787"
       fy="-0.17582053"
       r="25.507885"
       gradientUnits="userSpaceOnUse" />
    <radialGradient
       inkscape:collect="always"
       xlink:href="#linearGradient4768"
       id="radialGradient4770-2"
       cx="51.050171"
       cy="-0.37901384"
       fx="51.050171"
       fy="-0.37901384"
       r="7.3133893"
       gradientUnits="userSpaceOnUse"
       gradientTransform="matrix(2.2043966,-0.16813967,0.17002641,2.2291328,-61.764676,9.2631943)" />
    <radialGradient
       inkscape:collect="always"
       xlink:href="#linearGradient4837"
       id="radialGradient4831"
       cx="51.050171"
       cy="-0.37901384"
       fx="51.050171"
       fy="-0.37901384"
       r="7.3133893"
       gradientUnits="userSpaceOnUse" />
  </defs>
  <sodipodi:namedview
     id="base"
     pagecolor="#000000"
     bordercolor="#666666"
     borderopacity="1.0"
     inkscape:pageopacity="0"
     inkscape:pageshadow="2"
     inkscape:zoom="2.9950068"
     inkscape:cx="82.28185"
     inkscape:cy="186.43564"
     inkscape:document-units="mm"
     inkscape:current-layer="g3730"
     showgrid="false"
     inkscape:window-width="1440"
     inkscape:window-height="837"
     inkscape:window-x="-8"
     inkscape:window-y="-8"
     inkscape:window-maximized="1"
     scale-x="0.30005"
     viewbox-width="202.1"
     viewbox-x="85.1"
     viewbox-y="114"
     fit-margin-top="0"
     fit-margin-left="0"
     fit-margin-right="0"
     fit-margin-bottom="0"
     inkscape:pagecheckerboard="true"
     showguides="true"
     inkscape:guide-bbox="true">
    <sodipodi:guide
       position="4.648309,27.739908"
       orientation="1,0"
       id="guide4841"
       inkscape:locked="false" />
  </sodipodi:namedview>
  <metadata
     id="metadata3787">
    <rdf:RDF>
      <cc:Work
         rdf:about="">
        <dc:format>image/svg+xml</dc:format>
        <dc:type
           rdf:resource="http://purl.org/dc/dcmitype/StillImage" />
        <dc:title></dc:title>
      </cc:Work>
    </rdf:RDF>
  </metadata>
  <g
     inkscape:label="Livello 1"
     id="layer1"
     transform="translate(-7.5937584,-20.337118)"
     style="display:inline"
     inkscape:groupmode="layer">
    <g
       id="g3730"
       transform="matrix(0.26458333,0,0,0.26458333,91.724479,135.69566)">
      <rect
         style="fill:url(#linearGradient4600);fill-opacity:1;stroke-width:0.30004999"
         id="rect4540"
         width="169.10959"
         height="107.79736"
         x="-13.367762"
         y="-15.306346" />
      <path
         style="display:inline;fill:url(#linearGradient4537);fill-opacity:1;stroke:#000000;stroke-width:0.26358527px;stroke-linecap:butt;stroke-linejoin:miter;stroke-opacity:1"
         d="M -6.7556564,51.532675 C 5.6670869,42.25515 23.499734,33.905378 35.72211,34.214629 c 20.2599,-1.177083 30.037663,10.598648 42.660773,11.990276 15.628613,1.082378 22.658807,-5.341384 45.901357,-7.196889 19.43558,-2.628632 32.65979,7.731269 32.65979,7.731269 L 155.9422,91.889904 -8.7593249,91.271403 c 0,0 -11.4741601,-28.932286 2.0036685,-39.738728 z"
         id="path3703"
         inkscape:connector-curvature="0"
         sodipodi:nodetypes="cccccccc" />
      <path
         style="display:inline;fill:#000000;fill-opacity:0.19565214;stroke:none;stroke-width:0.78476065;stroke-miterlimit:4;stroke-dasharray:none;stroke-opacity:1"
         d="M 109.04788,39.416847 137.60865,50.013243 94.129051,76.561865 79.001348,65.641873 Z"
         id="rect4816"
         inkscape:connector-curvature="0"
         sodipodi:nodetypes="ccccc" />
      <g
         id="g4567"
         transform="matrix(0.78371845,0,0,1.2441625,31.395375,0.37084601)">
        <path
           style="fill:#cedcf2;fill-opacity:1;stroke:#4e4e4e;stroke-width:0.9110406;stroke-linecap:butt;stroke-linejoin:miter;stroke-miterlimit:4;stroke-dasharray:none;stroke-opacity:1"
           d="M 60.693797,50.10152 101.1623,22.479298 131.5079,23.438702 80.792962,58.355146 Z"
           id="path4573"
           inkscape:connector-curvature="0"
           sodipodi:nodetypes="ccccc" />
        <path
           style="fill:#2c3b52;fill-opacity:1"
           id="path3680"
           d="m 92.282151,48.583361 c -3.9,2.7 -7.8,5.3 -11.7,8 -2.2,-0.8 -4.3,-1.7 -6.4,-2.5 3.6,-2.5 7.2,-4.9 10.8,-7.4 2.5,0.7 4.9,1.3 7.3,1.9 z"
           inkscape:connector-curvature="0" />
        <path
           style="fill:#2c3b52;fill-opacity:1"
           id="path3682"
           d="m 117.88215,24.283361 c 3.2,0.1 6.4,0.2 9.6,0.3 -3.9,2.7 -7.8,5.3 -11.7,8 -2.9,-0.3 -5.8,-0.6 -8.7,-0.9 3.6,-2.5 7.2,-5 10.8,-7.4 z"
           inkscape:connector-curvature="0" />
        <path
           style="fill:#2c3b52;fill-opacity:1"
           id="path3684"
           d="m 95.582151,39.483361 c 2.7,0.5 5.299999,0.9 7.999999,1.4 -3.5,2.4 -6.999999,4.8 -10.499999,7.2 -2.4,-0.6 -4.8,-1.3 -7.3,-1.9 3.3,-2.3 6.6,-4.5 9.8,-6.7 z"
           inkscape:connector-curvature="0" />
        <path
           style="fill:#2c3b52;fill-opacity:1"
           id="path3686"
           d="m 106.28215,32.183361 c 2.9,0.3 5.8,0.6 8.7,0.9 -3.5,2.4 -7,4.8 -10.5,7.1 -2.7,-0.5 -5.299999,-0.9 -7.999999,-1.4 3.3,-2.2 6.599999,-4.4 9.799999,-6.6 z"
           inkscape:connector-curvature="0" />
        <path
           style="fill:#2c3b52;fill-opacity:1"
           id="path3688"
           d="m 99.782151,30.883361 c 0.999999,-0.7 1.899999,-1.3 2.699999,-1.9 2.3,-1.6 4.5,-3.1 6.8,-4.7 0.2,-0.1 0.7,-0.3 0.9,-0.3 2.1,0 4.1,0.1 6.2,0.2 -3.6,2.4 -7.1,4.8 -10.7,7.3 -1.8,-0.2 -3.8,-0.4 -5.899999,-0.6 z"
           inkscape:connector-curvature="0" />
        <path
           style="fill:#2c3b52;fill-opacity:1"
           id="path3690"
           d="m 69.482151,51.583361 c 3,-2 5.9,-4 8.9,-6.1 0.2,-0.1 0.4,-0.2 0.6,-0.4 1.7,0.4 3.4,0.9 5,1.3 -3.6,2.4 -7.1,4.8 -10.7,7.3 -1.3,-0.5 -2.6,-1 -3.9,-1.5 -0.4,-0.2 -0.3,-0.3 0.1,-0.6 z"
           inkscape:connector-curvature="0" />
        <path
           style="fill:#2c3b52;fill-opacity:1"
           id="path3692"
           d="m 67.982151,51.583361 c -1.4,-0.5 -2.7,-1.1 -4.1,-1.6 -0.4,-0.2 -0.5,-0.3 0,-0.6 2.8,-1.9 5.5,-3.7 8.2,-5.6 0.2,-0.1 0.4,-0.2 0.6,-0.4 1.8,0.5 3.5,0.9 5.2,1.4 -3.3,2.3 -6.5,4.6 -9.9,6.8 z"
           inkscape:connector-curvature="0" />
        <path
           style="fill:#2c3b52;fill-opacity:1"
           id="path3694"
           d="m 101.88215,23.783361 c 2.2,0.1 4.4,0.1 6.6,0.2 -3.3,2.3 -6.6,4.5 -9.899999,6.8 -2.1,-0.2 -4.1,-0.4 -6.3,-0.7 3,-2.1 6,-4.1 8.999999,-6.1 0.2,-0.1 0.5,-0.2 0.6,-0.2 z"
           inkscape:connector-curvature="0" />
        <path
           style="fill:#2c3b52;fill-opacity:1"
           id="path3696"
           d="m 80.482151,44.783361 c -0.6,-0.1 -0.6,-0.3 -0.1,-0.6 2.7,-1.8 5.4,-3.7 8.1,-5.5 0.2,-0.1 0.4,-0.2 0.6,-0.4 1.9,0.3 3.7,0.7 5.5,1 -3.2,2.2 -6.4,4.4 -9.7,6.6 -1.5,-0.4 -2.9,-0.8 -4.4,-1.1 z"
           inkscape:connector-curvature="0" />
        <path
           style="fill:#2c3b52;fill-opacity:1"
           id="path3698"
           d="m 104.98215,32.083361 c -3.3,2.2 -6.399999,4.4 -9.599999,6.6 -1.8,-0.3 -3.6,-0.6 -5.5,-1 3.1,-2.1 6.1,-4.2 9.2,-6.3 1.999999,0.3 3.899999,0.5 5.899999,0.7 z"
           inkscape:connector-curvature="0" />
        <path
           style="fill:#2c3b52;fill-opacity:1"
           id="path3700"
           d="m 78.782151,44.283361 c -1.8,-0.5 -3.5,-0.9 -5.2,-1.4 2.9,-2 5.7,-3.9 8.5,-5.8 1.9,0.3 3.8,0.7 5.7,1 -3,2.1 -6,4.1 -9,6.2 z"
           inkscape:connector-curvature="0" />
        <path
           style="fill:#2c3b52;fill-opacity:1"
           id="path3702"
           d="m 88.682151,37.483361 c -1.9,-0.3 -3.8,-0.7 -5.7,-1 2.8,-1.9 5.7,-3.9 8.5,-5.8 2.1,0.2 4.1,0.4 6.2,0.7 -3,2 -6,4 -9,6.1 z"
           inkscape:connector-curvature="0" />
        <path
           style="fill:url(#linearGradient4661);fill-opacity:1;stroke:none;stroke-width:0.91104066;stroke-linecap:butt;stroke-linejoin:miter;stroke-miterlimit:4;stroke-dasharray:none;stroke-opacity:1"
           d="M 60.693795,50.101521 101.1623,22.479298 131.5079,23.438702 80.79296,58.355146 Z"
           id="path4573-1"
           inkscape:connector-curvature="0"
           sodipodi:nodetypes="ccccc" />
      </g>
      <g
         id="g4846"
         transform="translate(8.8161404,4.608437)">
        <path
           d="M 58.36356,-0.37901384 A 7.3133893,7.3133893 0 0 1 51.105312,6.9341676 7.3133893,7.3133893 0 0 1 43.737613,-0.26873464 7.3133893,7.3133893 0 0 1 50.88476,-7.6905323 7.3133893,7.3133893 0 0 1 58.360234,-0.59954716"
           sodipodi:open="true"
           sodipodi:end="6.253026"
           sodipodi:start="0"
           sodipodi:ry="7.3133893"
           sodipodi:rx="7.3133893"
           sodipodi:cy="-0.37901384"
           sodipodi:cx="51.050171"
           sodipodi:type="arc"
           id="path4724"
           style="display:inline;fill:url(#radialGradient4831);fill-opacity:1;stroke:none;stroke-width:0.78476065;stroke-miterlimit:4;stroke-dasharray:none;stroke-opacity:1" />
        <path
           d="M 66.874144,-0.16523705 A 16.168436,16.168436 0 0 1 50.827614,16.002739 16.168436,16.168436 0 0 1 34.53911,0.07856812 16.168436,16.168436 0 0 1 50.340017,-16.329537 16.168436,16.168436 0 0 1 66.866791,-0.65279196"
           sodipodi:open="true"
           sodipodi:end="6.253026"
           sodipodi:start="0"
           sodipodi:ry="16.168436"
           sodipodi:rx="16.168436"
           sodipodi:cy="-0.16523705"
           sodipodi:cx="50.705708"
           sodipodi:type="arc"
           id="path4724-0"
           style="display:inline;fill:url(#radialGradient4770-2);fill-opacity:1;stroke:none;stroke-width:1.73494828;stroke-miterlimit:4;stroke-dasharray:none;stroke-opacity:1" />
        <path
           d="M 73.086978,17.817634 53.754934,2.7419952 60.401733,26.33909 51.19751,3.6171818 45.15526,27.376265 48.545124,3.096404 31.432839,20.651249 46.508478,1.3192038 22.911383,7.9660032 45.633291,-1.2382194 21.874208,-7.2804698 46.154069,-3.8906062 28.599225,-21.00289 47.931269,-5.9272517 41.28447,-29.524347 50.488693,-6.8024383 56.530943,-30.561522 53.141079,-6.2816605 70.253364,-23.836505 55.177725,-4.5044603 78.77482,-11.15126 56.052912,-1.9470371 79.811995,4.0952134 55.532134,0.70534974 Z"
           inkscape:randomized="0"
           inkscape:rounded="0"
           inkscape:flatsided="false"
           sodipodi:arg2="0.97927499"
           sodipodi:arg1="0.7174756"
           sodipodi:r2="5.2218509"
           sodipodi:r1="29.521997"
           sodipodi:cy="-1.5926282"
           sodipodi:cx="50.843102"
           sodipodi:sides="12"
           id="path4808"
           style="fill:#ffffff;fill-opacity:0.11739131;stroke:none;stroke-width:0.78476065;stroke-miterlimit:4;stroke-dasharray:none;stroke-opacity:1"
           sodipodi:type="star" />
      </g>
    </g>
  </g>
</svg>
